# xmcd
#
# Track frame offsets: 
#        150
#        8575
#        33394
#        60367
#        88122
#        113654
#        135704
#        152603
#        178635
#        201001
#        219725
#        238549
#
# Disc length: 3456 seconds
#
# Revision: 0
# Processed by: cddbd v1.5.2PL0 Copyright (c) Steve Scherf et al.
# Submitted via: ExactAudioCopy v1.0b3
#
DISCID=950d7e0c
DTITLE=Various Artist - Mua Ha Con Dau
DYEAR=1993
DGENRE=
TTITLE0=Loi gioi thieu
TTITLE1=Le Thu - Em oi Ha Noi pho
TTITLE2=Le Dung - Noi nho mua dong
TTITLE3=Bao Yen - Tam su nguoi ca si
TTITLE4=Hong Hanh - Dau phai boi mua thu
TTITLE5=Thang Long Bass - Phia toi tam hon toi
TTITLE6=Nha Phuong - Muon
TTITLE7=Hong Nhung - Tinh khuc 24
TTITLE8=Bao Yen - Giot ca phe
TTITLE9=Thanh Long Bass - Mua ha con dau
TTITLE10=Thanh Lam - Noi nho
TTITLE11=Bao Yen - Loi tinh muon
EXTD=
EXTT0=
EXTT1=
EXTT2=
EXTT3=
EXTT4=
EXTT5=
EXTT6=
EXTT7=
EXTT8=
EXTT9=
EXTT10=
EXTT11=
PLAYORDER=
